HIERARCHY
ROOT Pelvis
{
	OFFSET 0.000000 0.941512 0.000000
	CHANNELS 6 Xposition Yposition Zposition Zrotation Yrotation Xrotation 
	JOINT Pelvis_L_Hip
	{
		OFFSET 0.000000 0.000000 0.000000
		CHANNELS 3 Zrotation Yrotation Xrotation
		JOINT L_Hip
		{
			OFFSET 0.062321 -0.080322 -0.016990
			CHANNELS 3 Zrotation Yrotation Xrotation
			JOINT L_Knee
			{
				OFFSET 0.093051 -0.381305 -0.029784
				CHANNELS 3 Zrotation Yrotation Xrotation
				JOINT L_Ankle
				{
					OFFSET -0.010371 -0.431000 -0.033614
					CHANNELS 3 Zrotation Yrotation Xrotation
					End Site #name: L_Foot
					{
						OFFSET 0.069299 -0.038670 0.119418
					}
				}
			}
		}
	}
	JOINT Pelvis_R_Hip
	{
		OFFSET 0.000000 0.000000 0.000000
		CHANNELS 3 Zrotation Yrotation Xrotation
		JOINT R_Hip
		{
			OFFSET -0.055334 -0.094904 -0.002373
			CHANNELS 3 Zrotation Yrotation Xrotation
			JOINT R_Knee
			{
				OFFSET -0.064207 -0.384370 -0.019592
				CHANNELS 3 Zrotation Yrotation Xrotation
				JOINT R_Ankle
				{
					OFFSET 0.025418 -0.419734 -0.065953
					CHANNELS 3 Zrotation Yrotation Xrotation
					End Site #name: R_Foot
					{
						OFFSET -0.057233 -0.039888 0.132134
					}
				}
			}
		}
	}
	JOINT Pelvis_Spine1
	{
		OFFSET 0.000000 0.000000 0.000000
		CHANNELS 3 Zrotation Yrotation Xrotation
		JOINT Spine1
		{
			OFFSET -0.005562 0.124093 -0.043360
			CHANNELS 3 Zrotation Yrotation Xrotation
			JOINT Spine2
			{
				OFFSET 0.012244 0.139499 0.029894
				CHANNELS 3 Zrotation Yrotation Xrotation
				JOINT Spine3
				{
					OFFSET -0.002556 0.056561 0.009225
					CHANNELS 3 Zrotation Yrotation Xrotation
					JOINT Spine3_Neck
					{
						OFFSET 0.000000 0.000000 0.000000
						CHANNELS 3 Zrotation Yrotation Xrotation
						JOINT Neck
						{
							OFFSET -0.005205 0.217920 -0.024551
							CHANNELS 3 Zrotation Yrotation Xrotation
							End Site #name: Head
							{
								OFFSET 0.002365 0.091850 0.046637
							}
						}
					}
					JOINT Spine3_L_Collar
					{
						OFFSET 0.000000 0.000000 0.000000
						CHANNELS 3 Zrotation Yrotation Xrotation
						JOINT L_Collar
						{
							OFFSET 0.072225 0.116603 -0.009480
							CHANNELS 3 Zrotation Yrotation Xrotation
							JOINT L_Shoulder
							{
								OFFSET 0.115937 -0.058643 -0.021018
								CHANNELS 3 Zrotation Yrotation Xrotation
								JOINT L_Elbow
								{
									OFFSET 0.021994 -0.254722 -0.024492
									CHANNELS 3 Zrotation Yrotation Xrotation
									End Site #name: L_Wrist
									{
										OFFSET 0.048810 -0.240214 0.103329
									}
								}
							}
						}
					}
					JOINT Spine3_R_Collar
					{
						OFFSET 0.000000 0.000000 0.000000
						CHANNELS 3 Zrotation Yrotation Xrotation
						JOINT R_Collar
						{
							OFFSET -0.073372 0.120704 -0.024611
							CHANNELS 3 Zrotation Yrotation Xrotation
							JOINT R_Shoulder
							{
								OFFSET -0.108089 -0.054969 -0.020504
								CHANNELS 3 Zrotation Yrotation Xrotation
								JOINT R_Elbow
								{
									OFFSET -0.033684 -0.260739 0.009889
									CHANNELS 3 Zrotation Yrotation Xrotation
									End Site #name: R_Wrist
									{
										OFFSET -0.067980 -0.232763 0.118463
									}
								}
							}
						}
					}
				}
			}
		}
	}
}
MOTION
Frames: 10
Frame Time: 0.041667
-0.002871 0.948224 0.017392 -0.477946 -1.971612 11.244500 0.000000 0.000000 0.000000 0.239820 -3.619838 -15.273700 2.782996 -0.389161 3.412687 -0.649545 -0.904829 0.634280 0.000000 0.000000 0.000000 -0.297352 1.693967 -10.066131 1.524524 -0.352402 -2.459721 -3.126230 -15.003502 5.384415 0.000000 0.000000 0.000000 2.020456 0.376304 -8.086170 4.265914 -0.729472 -9.548417 3.493323 3.311674 3.937602 0.000000 0.000000 0.000000 1.384757 -0.915418 4.358847 0.000000 0.000000 0.000000 29.625951 12.215100 16.930333 -22.356403 2.027354 -1.144490 -11.949328 -9.463372 -12.004219 0.000000 0.000000 0.000000 -31.360534 -10.611918 16.103276 24.275493 3.149726 -6.531062 -58.967874 -41.407910 -36.158515 
-0.003454 0.948255 0.020035 -0.426899 -2.196372 10.533692 0.000000 0.000000 0.000000 0.077252 -3.403566 -14.301873 2.870574 -0.395137 3.328565 -0.576269 -1.030434 0.435214 0.000000 0.000000 0.000000 -0.213452 1.629945 -9.683733 1.441978 -0.298392 -1.562645 -3.208545 -14.957396 5.064181 0.000000 0.000000 0.000000 1.706732 0.377299 -7.608811 4.799836 -0.765865 -9.941494 3.315809 1.773481 4.811953 0.000000 0.000000 0.000000 1.431540 -0.946881 5.045103 0.000000 0.000000 0.000000 30.555109 10.971634 15.910102 -23.816840 2.892050 1.194315 -9.597698 -7.865819 -11.384226 0.000000 0.000000 0.000000 -30.348207 -12.840245 17.891664 24.998186 3.428336 -7.294313 -60.070166 -42.325873 -36.083333 
-0.005162 0.947768 0.020988 -0.844763 -3.570126 10.051587 0.000000 0.000000 0.000000 0.399034 -3.228835 -13.627162 2.977774 -0.430419 3.764723 0.014982 0.059198 0.007120 0.000000 0.000000 0.000000 0.055607 1.621318 -9.603058 1.741341 -0.315909 -1.078276 -2.801778 -13.813726 4.873406 0.000000 0.000000 0.000000 1.491207 0.375348 -7.332043 5.465984 -0.794454 -9.578390 3.625926 1.102097 4.616110 0.000000 0.000000 0.000000 0.956998 -0.671943 6.134428 0.000000 0.000000 0.000000 31.070691 10.263451 15.132946 -24.340672 3.121706 1.842287 -8.841113 -6.390237 -8.172703 0.000000 0.000000 0.000000 -29.036119 -12.608119 17.491426 25.328301 3.460429 -7.354127 -58.078930 -41.363179 -37.654823 
-0.006661 0.947048 0.021327 -1.147399 -5.272609 10.328228 0.000000 0.000000 0.000000 0.609927 -3.165124 -13.423900 3.039396 -0.436647 3.684004 0.605049 1.596567 -0.174948 0.000000 0.000000 0.000000 0.180138 1.653885 -9.774893 1.853927 -0.358936 -1.754592 -2.161798 -12.406717 5.046989 0.000000 0.000000 0.000000 1.373435 0.428800 -7.813305 5.809644 -0.797546 -9.160512 3.889536 0.969488 3.887927 0.000000 0.000000 0.000000 0.508113 -0.392222 7.345706 0.000000 0.000000 0.000000 31.299706 10.248325 14.888776 -24.339047 3.120287 2.003183 -8.109696 -5.239355 -5.691554 0.000000 0.000000 0.000000 -28.132420 -11.330367 16.375007 24.999704 3.589997 -7.779687 -56.299776 -39.957716 -37.953724 
-0.007353 0.946501 0.021146 -1.241823 -6.603459 10.772589 0.000000 0.000000 0.000000 0.621702 -3.156206 -13.421378 3.077468 -0.428765 3.369895 0.981898 2.817327 -0.147903 0.000000 0.000000 0.000000 0.148639 1.664592 -9.837658 1.778446 -0.400297 -2.955864 -1.530526 -11.253315 5.453804 0.000000 0.000000 0.000000 1.475635 0.426411 -8.077481 5.753446 -0.769108 -9.306368 4.010621 1.093402 3.352226 0.000000 0.000000 0.000000 0.056235 -0.095183 7.608806 0.000000 0.000000 0.000000 31.397712 10.563766 14.994572 -24.323156 3.102777 2.081926 -7.211020 -4.496743 -4.715285 0.000000 0.000000 0.000000 -27.864092 -10.055567 15.426293 24.810566 3.681042 -8.057858 -54.496550 -38.975811 -39.358319 
-0.007189 0.946566 0.020347 -1.194947 -7.288585 11.017077 0.000000 0.000000 0.000000 0.465577 -3.166537 -13.459633 3.130414 -0.426494 3.164925 1.162837 3.523836 -0.055291 0.000000 0.000000 0.000000 -0.036325 1.708175 -10.101295 1.776933 -0.413063 -3.277780 -1.210055 -10.662174 5.642129 0.000000 0.000000 0.000000 1.767429 0.361803 -7.974406 5.399513 -0.729675 -9.517973 3.911140 1.147735 3.223150 0.000000 0.000000 0.000000 -0.317798 0.144828 7.133610 0.000000 0.000000 0.000000 31.216020 10.758787 14.985293 -24.360046 3.078295 2.024984 -6.200693 -4.214682 -5.488377 0.000000 0.000000 0.000000 -27.509847 -8.992943 14.514521 24.566867 3.694877 -8.165116 -52.071650 -37.918519 -42.153867 
-0.006984 0.946939 0.018973 -1.197352 -7.582738 10.817269 0.000000 0.000000 0.000000 0.380026 -3.130993 -13.289905 3.138546 -0.428757 3.181712 1.232993 3.943594 0.078227 0.000000 0.000000 0.000000 -0.086491 1.716307 -10.151919 1.774765 -0.403836 -3.085404 -1.064636 -10.380879 5.713004 0.000000 0.000000 0.000000 2.212943 0.239772 -7.526624 4.838281 -0.690278 -9.238667 3.718786 1.222550 3.406216 0.000000 0.000000 0.000000 -0.547692 0.282535 5.773361 0.000000 0.000000 0.000000 30.760710 10.380647 14.454626 -24.236666 2.884906 1.422158 -6.041705 -4.525390 -6.874092 0.000000 0.000000 0.000000 -27.406247 -7.543473 13.324015 24.932763 3.560580 -7.697398 -48.477937 -36.156386 -46.499270 
-0.007365 0.946995 0.016445 -1.244631 -7.801058 10.540973 0.000000 0.000000 0.000000 0.429412 -3.070761 -13.030405 3.056196 -0.420494 3.196663 1.281047 4.263668 0.193273 0.000000 0.000000 0.000000 -0.079242 1.716088 -10.149273 1.870386 -0.401420 -2.777376 -1.075693 -10.265783 5.561862 0.000000 0.000000 0.000000 2.714267 0.110058 -7.110211 4.128724 -0.641017 -8.564006 3.374028 1.084104 3.631749 0.000000 0.000000 0.000000 -0.683473 0.362317 4.514653 0.000000 0.000000 0.000000 30.389192 9.715742 13.685711 -23.930260 2.625221 0.662952 -6.558132 -5.288674 -8.574711 0.000000 0.000000 0.000000 -27.712403 -5.843626 12.110307 26.117172 3.117483 -6.205312 -40.055677 -30.394900 -56.932162 
-0.008344 0.946754 0.013351 -1.326727 -8.299379 10.315898 0.000000 0.000000 0.000000 0.522816 -2.988254 -12.680691 2.990078 -0.411773 3.149115 1.417919 4.785678 0.264163 0.000000 0.000000 0.000000 -0.096274 1.712886 -10.130414 2.017603 -0.413344 -2.663490 -0.916812 -9.871245 5.546477 0.000000 0.000000 0.000000 3.098608 -0.003190 -6.707329 3.416289 -0.579989 -7.962399 3.134785 1.112093 3.685301 0.000000 0.000000 0.000000 -0.871039 0.470701 3.961255 0.000000 0.000000 0.000000 30.040824 9.102832 12.966965 -23.578295 2.326691 -0.207654 -7.424000 -6.158664 -9.887978 0.000000 0.000000 0.000000 -28.089421 -3.521686 10.388960 27.755695 2.560765 -4.395762 -31.823348 -21.344149 -66.490179 
-0.009425 0.946451 0.009567 -1.463650 -8.901659 10.349513 0.000000 0.000000 0.000000 0.681057 -2.970703 -12.638746 2.979812 -0.413219 3.182293 1.603180 5.437998 0.326669 0.000000 0.000000 0.000000 -0.060094 1.752844 -10.350224 2.155011 -0.429878 -2.696389 -0.693426 -9.386134 5.596012 0.000000 0.000000 0.000000 3.356283 -0.073253 -6.524528 2.771218 -0.516300 -7.238764 3.010154 1.517718 3.272559 0.000000 0.000000 0.000000 -1.082929 0.586397 3.579975 0.000000 0.000000 0.000000 29.383178 8.953232 12.604555 -23.218645 1.836320 -1.702938 -8.078824 -6.724165 -10.520354 0.000000 0.000000 0.000000 -28.265361 -0.910065 8.254084 29.557607 2.312813 -3.384803 -26.640770 -13.178796 -70.427532 
